<svg xmlns="http://www.w3.org/2000/svg" xmlns:xlink="http://www.w3.org/1999/xlink" width="100" height="100" viewBox="0 0 100 100">
  <defs>
    <style>
      .cls-1 {
        fill-rule: evenodd;
        fill: url(#linear-gradient);
        filter: url(#filter);
      }
    </style>
    <linearGradient id="linear-gradient" x1="50" y1="93.531" x2="50" y2="6.469" gradientUnits="userSpaceOnUse">
      <stop offset="0" stop-color="#171717"/>
      <stop offset="1" stop-color="#171717"/>
    </linearGradient>
    <filter id="filter" x="6.531" y="6.469" width="86.938" height="87.062" filterUnits="userSpaceOnUse">
      <feFlood result="flood" flood-color="#171717"/>
      <feComposite result="composite" operator="in" in2="SourceGraphic"/>
      <feBlend result="blend" in2="SourceGraphic"/>
    </filter>
  </defs>
  <path id="Gradient_Fill_1" data-name="Gradient Fill 1" class="cls-1" d="M10.557,6.725c3.84-.03,8.639-0.347,11.844.388,1.594,2.481.524,6.487,1.165,9.9h3.3c0.708-2.118.21-5.841,0.194-8.349a0.991,0.991,0,0,0,.194-0.582A14.935,14.935,0,0,0,29,6.725c3.925-.03,8.741-0.323,12.038.388,1.317,2.075,1,6.238.971,9.708a12.769,12.769,0,0,0,3.495.194c0.725-2.169.211-5.98,0.194-8.543A1.386,1.386,0,0,0,46.089,7.7c0.633-.225.987-0.789,1.553-0.971,1.946-.626,11.048.1,12.233,0.583,1.054,1.8.777,5.246,0.777,8.155,0,6.269.368,10.531-3.495,13.009-1.947,1.249-5.4.971-8.543,0.971H30.944c-6.679,0-16.924,1.289-20.388-2.136C7.82,24.6,8.421,18.576,8.421,13.133c0-2.638-.421-5.315,1.553-6.019C10.124,6.981,10.408,6.859,10.557,6.725ZM76.962,37.6c7.32-.171,12.7-0.69,11.65,7.184-1.194.958-1.734,2.239-3.495,2.718h-23.3c-3.488,0-8.045.518-9.9-1.165-2.328-2.109-1.562-6.827.971-8.155,2.08-1.091,6.511-.632,9.514-0.583v-4.66c1.258-4.011,7.139-7.434,11.844-4.078C76.639,30.569,77.057,33.3,76.962,37.6ZM13.081,74.684c0.253-1.592,1.345-2.982,1.942-4.272,0.849-1.835,1.452-3.888,2.136-5.631,0.383-.977.058-1.523,0.388-2.524,2.485-7.532,3.686-18.358,1.942-27.378,2.345-.773,6.381-0.194,9.126-0.194H48.419a0.55,0.55,0,0,0,.194.194,0.55,0.55,0,0,1-.194.194c-2.88,3.107-4.829,8.581-1.748,13.2,0.812,1.218,3.418,2.587,3.883,3.689,2.532,6,2.212,17.711-1.359,22.329-0.554.717-7.307,0.388-8.932,0.388H13.081Zm43.3-21.747H82.787c-0.085,3.647-2.1,7.812-.777,11.65v2.718c0.568,1.631.811,3.8,1.553,5.437,0.732,1.613,2.162,3.4,2.524,5.243H53.274V77.6c1.1-.944,1.541-3.034,2.136-4.466,1.138-2.739,3.144-9.8,2.136-14.368A46.972,46.972,0,0,1,56.38,52.937ZM41.235,93.518H8.615c-0.415-.8-1.208-0.8-1.553-1.748-1.275-1.672.062-7.256,0.777-8.349a7.744,7.744,0,0,1,1.553-1.359c2.955-2.631,6.535-2.136,12.038-2.136H45.507v0.388c-1.225.4-1.649,1.378-2.33,2.33C40.93,85.786,40.968,88.358,41.235,93.518Zm10.1-10.291H79.1c4.117,0,9.36-.542,11.844,1.165,1.868,1.284,2.548,3.759,2.524,6.99-0.85.439-1.284,1.686-2.136,2.136h-43.3c-0.383-.727-1.437-0.98-1.748-1.748V87.693c0.765-.962.949-2.384,1.942-3.107C49.1,83.952,50.458,83.892,51.332,83.227Z"/>
</svg>
